<svg xmlns="http://www.w3.org/2000/svg" viewBox="0 0 377.14 377.14"><defs><style>.cls-1{fill:#fff;}.cls-2,.cls-4,.cls-5{fill:#db0d0a;}.cls-3{fill:none;stroke:#db0d0a;stroke-miterlimit:10;stroke-width:10px;}.cls-4{font-size:38.72px;}.cls-4,.cls-5{font-family:Rockwell-ExtraBold, Rockwell Extra Bold;font-weight:800;}.cls-5{font-size:30px;}.cls-6{letter-spacing:-0.06em;}</style></defs><g id="Layer_2" data-name="Layer 2"><g id="Layer_1-2" data-name="Layer 1"><path class="cls-1" d="M316.29,193.25c0-6.22.17-11.64-.05-17.05-.19-4.75-3-7.67-7.37-9.37a19.64,19.64,0,0,1-6-3.38c-12.8-11.4-25.72-22.69-38.09-34.55-5-4.83-10.25-6.7-17.07-6.68-58.23.16-116.46.08-174.69.1-10.1,0-13.57,3.46-13.58,13.4q0,53.49,0,107c0,1.19,0,2.38.06,3.56.51,5.69,3.81,8.81,10.14,9.4a31.6,31.6,0,0,0,1-3.25,33.14,33.14,0,0,1,32-26.36c15-.26,29.14,10.55,32.27,25.27.87,4.09,2.56,5,6.42,4.95,30.05-.16,60.1-.09,90.15-.09h4.81a11.34,11.34,0,0,0,.75-1.92,33.11,33.11,0,0,1,32.59-28.18c15.79-.27,27.37,9.61,32.76,27.3A5,5,0,0,0,306.2,256c7.59-.22,11.26-6.36,9.56-15.49-6.87-1.1-6.87-1.1-6.87-8.27V222c0-8,0-8,7.18-10.21V198.62c-2.61,0-5,.35-7.24-.12-1.43-.3-2.61-1.78-3.9-2.74,1.24-.84,2.4-2.17,3.75-2.4C311,193,313.35,193.25,316.29,193.25Zm-45.83,87A24.22,24.22,0,1,0,246.1,256.1,24.39,24.39,0,0,0,270.46,280.29ZM77.69,255.85a24.2,24.2,0,1,0,24.4-24A24.09,24.09,0,0,0,77.69,255.85ZM227.44,110.23c0,7.53,0,7.53,6.76,7.53,7.54,0,7.54,0,7.55-6.83,0-7.45,0-7.45-6.84-7.45C227.44,103.47,227.44,103.47,227.44,110.23Zm-15.2,1h12.9C220.28,108.13,215.4,108.28,212.24,111.26Zm34.28-1.44.15,1.55h11.2l0-1.55ZM234,98.53c3.62-4.43,3.4-10,0-12.45Zm18.59-6.16L251,90.85l-7.86,8.36,1.21,1.1Zm-35-.6L216,93.36l8.17,8,1.29-1.33Q221.52,95.89,217.6,91.77Z"/><path class="cls-2" d="M316.29,193.25c-2.94,0-5.34-.3-7.61.11-1.35.23-2.51,1.56-3.75,2.4,1.29,1,2.47,2.44,3.9,2.74,2.23.47,4.63.12,7.24.12v13.17c-7.18,2.22-7.18,2.22-7.18,10.21v10.19c0,7.17,0,7.17,6.87,8.27,1.7,9.13-2,15.27-9.56,15.49a5,5,0,0,1-3.86-2.59c-5.39-17.69-17-27.57-32.76-27.3A33.11,33.11,0,0,0,237,254.24a11.34,11.34,0,0,1-.75,1.92h-4.81c-30.05,0-60.1-.07-90.15.09-3.86,0-5.55-.86-6.42-4.95-3.13-14.72-17.24-25.53-32.27-25.27a33.14,33.14,0,0,0-32,26.36,31.6,31.6,0,0,1-1,3.25c-6.33-.59-9.63-3.71-10.14-9.4-.1-1.18-.06-2.37-.06-3.56q0-53.48,0-107c0-9.94,3.48-13.4,13.58-13.4,58.23,0,116.46.06,174.69-.1,6.82,0,12,1.85,17.07,6.68,12.37,11.86,25.29,23.15,38.09,34.55a19.64,19.64,0,0,0,6,3.38c4.4,1.7,7.18,4.62,7.37,9.37C316.46,181.61,316.29,187,316.29,193.25ZM113.4,183.61a43.09,43.09,0,1,0,43.2-42.92A42.89,42.89,0,0,0,113.4,183.61ZM272.92,180c7.46,0,14.93.07,22.39-.07,1.52,0,3-.87,4.56-1.34-.78-1.37-1.26-3.07-2.38-4.05q-23.22-20.58-46.64-40.95a17.61,17.61,0,0,0-3.86-2c-.54,1.48-1.55,2.95-1.56,4.44-.12,13.06,0,26.12-.13,39.18,0,3.9,1.61,4.94,5.22,4.85C258,179.82,265.45,180,272.92,180Zm-28.2,12H260.4C258.16,188.34,248,188.16,244.72,192Z"/><path class="cls-2" d="M270.46,280.29A24.22,24.22,0,1,1,294.77,256,24.33,24.33,0,0,1,270.46,280.29Zm.16-13.49a10.8,10.8,0,0,0,10.67-10.69,10.87,10.87,0,0,0-21.74-.11A10.81,10.81,0,0,0,270.62,266.8Z"/><path class="cls-2" d="M77.69,255.85a24.2,24.2,0,1,1,24,24.44A24,24,0,0,1,77.69,255.85Zm34.94.09a10.77,10.77,0,1,0-10.38,10.86A10.57,10.57,0,0,0,112.63,255.94Z"/><path class="cls-2" d="M227.44,110.23c0-6.76,0-6.76,7.47-6.75,6.84,0,6.84,0,6.84,7.45,0,6.84,0,6.84-7.55,6.83C227.43,117.76,227.43,117.76,227.44,110.23Z"/><path class="cls-2" d="M212.24,111.26c3.16-3,8-3.13,12.9,0Z"/><path class="cls-2" d="M246.52,109.82h11.33l0,1.55h-11.2Z"/><path class="cls-2" d="M234,98.53V86.08C237.41,88.52,237.63,94.1,234,98.53Z"/><path class="cls-2" d="M252.6,92.37l-8.26,7.94-1.21-1.1L251,90.85Z"/><path class="cls-2" d="M217.6,91.77q3.92,4.13,7.85,8.24l-1.29,1.33-8.17-8Z"/><path class="cls-1" d="M244.72,192c3.31-3.8,13.44-3.62,15.68,0Z"/><path class="cls-1" d="M270.62,266.8A10.81,10.81,0,0,1,259.55,256a10.87,10.87,0,0,1,21.74.11A10.8,10.8,0,0,1,270.62,266.8Z"/><path class="cls-1" d="M112.63,255.94a10.57,10.57,0,0,1-10.38,10.86,10.68,10.68,0,0,1-11.16-10.62,10.77,10.77,0,1,1,21.54-.24Z"/><path class="cls-2" d="M147.22,174.66V154.77h18.5v19.8H185.6v18.68H165.71v19.83H147.27V193.43h-20V174.66Z"/><circle class="cls-3" cx="188.57" cy="188.57" r="183.57"/><text class="cls-4" transform="translate(94.67 85.08)">NEMSAS</text><text class="cls-5" transform="translate(76.51 312.04)">S<tspan class="cls-6" x="18.75" y="0">A</tspan><tspan x="39.89" y="0">VING LIVES</tspan></text></g></g></svg>